<mxfile host="app.diagrams.net" agent="Mozilla/5.0 (Macintosh; Intel Mac OS X 10_15_7) AppleWebKit/537.36 (KHTML, like Gecko) Chrome/134.0.0.0 Safari/537.36" version="26.1.1">
  <diagram name="Page-1" id="UvP8EgcZyx_nq0MDtNqS">
    <mxGraphModel dx="2133" dy="859" grid="1" gridSize="10" guides="1" tooltips="1" connect="1" arrows="1" fold="1" page="1" pageScale="1" pageWidth="827" pageHeight="1169" math="0" shadow="0">
      <root>
        <mxCell id="0" />
        <mxCell id="1" parent="0" />
        <mxCell id="WAb9sOh3Z_-ssnAYQ2AI-6" style="edgeStyle=orthogonalEdgeStyle;rounded=0;orthogonalLoop=1;jettySize=auto;html=1;entryX=0.5;entryY=0;entryDx=0;entryDy=0;" edge="1" parent="1" source="WAb9sOh3Z_-ssnAYQ2AI-1" target="WAb9sOh3Z_-ssnAYQ2AI-3">
          <mxGeometry relative="1" as="geometry">
            <Array as="points">
              <mxPoint x="400" y="280" />
              <mxPoint x="140" y="280" />
              <mxPoint x="140" y="320" />
            </Array>
          </mxGeometry>
        </mxCell>
        <mxCell id="WAb9sOh3Z_-ssnAYQ2AI-7" style="edgeStyle=orthogonalEdgeStyle;rounded=0;orthogonalLoop=1;jettySize=auto;html=1;entryX=0.5;entryY=0;entryDx=0;entryDy=0;" edge="1" parent="1" source="WAb9sOh3Z_-ssnAYQ2AI-1" target="WAb9sOh3Z_-ssnAYQ2AI-5">
          <mxGeometry relative="1" as="geometry">
            <Array as="points">
              <mxPoint x="400" y="280" />
              <mxPoint x="610" y="280" />
            </Array>
          </mxGeometry>
        </mxCell>
        <mxCell id="WAb9sOh3Z_-ssnAYQ2AI-8" style="edgeStyle=orthogonalEdgeStyle;rounded=0;orthogonalLoop=1;jettySize=auto;html=1;entryX=0.5;entryY=0;entryDx=0;entryDy=0;" edge="1" parent="1" source="WAb9sOh3Z_-ssnAYQ2AI-1" target="WAb9sOh3Z_-ssnAYQ2AI-4">
          <mxGeometry relative="1" as="geometry">
            <Array as="points">
              <mxPoint x="400" y="300" />
              <mxPoint x="400" y="300" />
            </Array>
          </mxGeometry>
        </mxCell>
        <mxCell id="WAb9sOh3Z_-ssnAYQ2AI-1" value="MainView" style="rounded=1;whiteSpace=wrap;html=1;" vertex="1" parent="1">
          <mxGeometry x="340" y="190" width="120" height="60" as="geometry" />
        </mxCell>
        <mxCell id="WAb9sOh3Z_-ssnAYQ2AI-9" style="edgeStyle=orthogonalEdgeStyle;rounded=0;orthogonalLoop=1;jettySize=auto;html=1;entryX=0.5;entryY=0;entryDx=0;entryDy=0;" edge="1" parent="1" source="WAb9sOh3Z_-ssnAYQ2AI-2" target="WAb9sOh3Z_-ssnAYQ2AI-1">
          <mxGeometry relative="1" as="geometry" />
        </mxCell>
        <mxCell id="WAb9sOh3Z_-ssnAYQ2AI-2" value="HTML" style="rounded=1;whiteSpace=wrap;html=1;" vertex="1" parent="1">
          <mxGeometry x="340" y="90" width="120" height="60" as="geometry" />
        </mxCell>
        <mxCell id="WAb9sOh3Z_-ssnAYQ2AI-12" style="edgeStyle=orthogonalEdgeStyle;rounded=0;orthogonalLoop=1;jettySize=auto;html=1;entryX=0.5;entryY=0;entryDx=0;entryDy=0;" edge="1" parent="1" source="WAb9sOh3Z_-ssnAYQ2AI-3" target="WAb9sOh3Z_-ssnAYQ2AI-10">
          <mxGeometry relative="1" as="geometry" />
        </mxCell>
        <mxCell id="WAb9sOh3Z_-ssnAYQ2AI-13" style="edgeStyle=orthogonalEdgeStyle;rounded=0;orthogonalLoop=1;jettySize=auto;html=1;entryX=0.5;entryY=0;entryDx=0;entryDy=0;" edge="1" parent="1" source="WAb9sOh3Z_-ssnAYQ2AI-3" target="WAb9sOh3Z_-ssnAYQ2AI-11">
          <mxGeometry relative="1" as="geometry" />
        </mxCell>
        <mxCell id="WAb9sOh3Z_-ssnAYQ2AI-3" value="AuthView" style="rounded=1;whiteSpace=wrap;html=1;" vertex="1" parent="1">
          <mxGeometry x="80" y="320" width="120" height="60" as="geometry" />
        </mxCell>
        <mxCell id="WAb9sOh3Z_-ssnAYQ2AI-17" style="edgeStyle=orthogonalEdgeStyle;rounded=0;orthogonalLoop=1;jettySize=auto;html=1;entryX=0.5;entryY=0;entryDx=0;entryDy=0;" edge="1" parent="1" source="WAb9sOh3Z_-ssnAYQ2AI-4" target="WAb9sOh3Z_-ssnAYQ2AI-14">
          <mxGeometry relative="1" as="geometry" />
        </mxCell>
        <mxCell id="WAb9sOh3Z_-ssnAYQ2AI-4" value="TaskView" style="rounded=1;whiteSpace=wrap;html=1;" vertex="1" parent="1">
          <mxGeometry x="340" y="320" width="120" height="60" as="geometry" />
        </mxCell>
        <mxCell id="WAb9sOh3Z_-ssnAYQ2AI-18" style="edgeStyle=orthogonalEdgeStyle;rounded=0;orthogonalLoop=1;jettySize=auto;html=1;entryX=0.5;entryY=0;entryDx=0;entryDy=0;" edge="1" parent="1" source="WAb9sOh3Z_-ssnAYQ2AI-5" target="WAb9sOh3Z_-ssnAYQ2AI-16">
          <mxGeometry relative="1" as="geometry" />
        </mxCell>
        <mxCell id="WAb9sOh3Z_-ssnAYQ2AI-5" value="HomeView" style="rounded=1;whiteSpace=wrap;html=1;" vertex="1" parent="1">
          <mxGeometry x="550" y="320" width="120" height="60" as="geometry" />
        </mxCell>
        <mxCell id="WAb9sOh3Z_-ssnAYQ2AI-10" value="LoginView" style="rounded=1;whiteSpace=wrap;html=1;" vertex="1" parent="1">
          <mxGeometry x="-10" y="420" width="120" height="60" as="geometry" />
        </mxCell>
        <mxCell id="WAb9sOh3Z_-ssnAYQ2AI-11" value="SignUpView" style="rounded=1;whiteSpace=wrap;html=1;" vertex="1" parent="1">
          <mxGeometry x="160" y="420" width="120" height="60" as="geometry" />
        </mxCell>
        <mxCell id="WAb9sOh3Z_-ssnAYQ2AI-14" value="CalendarView" style="rounded=1;whiteSpace=wrap;html=1;" vertex="1" parent="1">
          <mxGeometry x="340" y="420" width="120" height="60" as="geometry" />
        </mxCell>
        <mxCell id="WAb9sOh3Z_-ssnAYQ2AI-16" value="IndexView" style="rounded=1;whiteSpace=wrap;html=1;" vertex="1" parent="1">
          <mxGeometry x="550" y="420" width="120" height="60" as="geometry" />
        </mxCell>
      </root>
    </mxGraphModel>
  </diagram>
</mxfile>
